<?xml version="1.0" encoding="utf-8"?>
<!-- Generated by IcoMoon.io -->
<!DOCTYPE svg PUBLIC "-//W3C//DTD SVG 1.1//EN" "http://www.w3.org/Graphics/SVG/1.1/DTD/svg11.dtd">
<svg version="1.1" xmlns="http://www.w3.org/2000/svg" xmlns:xlink="http://www.w3.org/1999/xlink" width="25" height="32" viewBox="0 0 25 32">
<g id="icomoon-ignore">
	<line stroke-width="1" x1="" y1="" x2="" y2="" stroke="#449FDB" opacity=""></line>
</g>
	<path d="M0 29.714l0.036-1.679q0.268-0.071 1.518-0.286t1.893-0.482q0.125-0.214 0.223-0.482t0.152-0.598 0.098-0.58 0.054-0.67 0.009-0.607v-1.17q0-17.536-0.393-18.304-0.071-0.143-0.393-0.259t-0.795-0.196-0.884-0.125-0.866-0.080-0.545-0.054l-0.071-1.482q1.75-0.036 6.071-0.205t6.661-0.17q0.411 0 1.223 0.009t1.205 0.009q1.25 0 2.438 0.232t2.295 0.75 1.929 1.268 1.321 1.866 0.5 2.455q0 0.929-0.295 1.705t-0.696 1.286-1.152 1.027-1.304 0.804-1.5 0.714q2.75 0.625 4.58 2.393t1.83 4.429q0 1.786-0.625 3.205t-1.67 2.33-2.464 1.527-2.92 0.866-3.143 0.25q-0.786 0-2.357-0.054t-2.357-0.054q-1.893 0-5.482 0.196t-4.125 0.214zM9.518 4.357q0 0.893 0.071 2.696t0.071 2.714q0 0.482-0.009 1.429t-0.009 1.411q0 0.821 0.018 1.232 0.75 0.125 1.946 0.125 1.464 0 2.554-0.232t1.964-0.795 1.33-1.598 0.455-2.536q0-1.25-0.518-2.188t-1.411-1.464-1.929-0.777-2.214-0.25q-0.893 0-2.321 0.232zM9.616 24.482q0.009 0.661 0.080 1.491t0.214 1.188q1.321 0.571 2.5 0.571 6.714 0 6.714-5.982 0-2.036-0.732-3.214-0.482-0.786-1.098-1.321t-1.205-0.83-1.438-0.446-1.5-0.188-1.688-0.036q-1.304 0-1.804 0.179 0 0.946-0.009 2.839t-0.009 2.821q0 0.143-0.018 1.205t-0.009 1.723z" fill="#000000"></path>
</svg>
