<?xml version="1.0" encoding="utf-8"?>
<!-- Generated by IcoMoon.io -->
<!DOCTYPE svg PUBLIC "-//W3C//DTD SVG 1.1//EN" "http://www.w3.org/Graphics/SVG/1.1/DTD/svg11.dtd">
<svg version="1.1" xmlns="http://www.w3.org/2000/svg" xmlns:xlink="http://www.w3.org/1999/xlink" width="32" height="32" viewBox="0 0 32 32">
<g id="icomoon-ignore">
	<line stroke-width="1" x1="" y1="" x2="" y2="" stroke="#449FDB" opacity=""></line>
</g>
	<path d="M0 23.429v-12q0-0.714 0.357-1.571t0.857-1.357l7.286-7.286q0.5-0.5 1.357-0.857t1.571-0.357h7.429q0.714 0 1.214 0.5t0.5 1.214v5.857q1.214-0.714 2.286-0.714h7.429q0.714 0 1.214 0.5t0.5 1.214v21.714q0 0.714-0.5 1.214t-1.214 0.5h-17.143q-0.714 0-1.214-0.5t-0.5-1.214v-5.143h-9.714q-0.714 0-1.214-0.5t-0.5-1.214zM2.286 22.857h9.143v-4.571q0-0.714 0.357-1.571t0.857-1.357l5.643-5.643v-7.429h-6.857v7.429q0 0.714-0.5 1.214t-1.214 0.5h-7.429v11.429zM3.804 9.143h5.339v-5.339zM13.714 29.714h16v-20.571h-6.857v7.429q0 0.714-0.5 1.214t-1.214 0.5h-7.429v11.429zM15.232 16h5.339v-5.339z" fill="#000000"></path>
</svg>
