<?xml version="1.0" encoding="utf-8"?>
<!-- Generated by IcoMoon.io -->
<!DOCTYPE svg PUBLIC "-//W3C//DTD SVG 1.1//EN" "http://www.w3.org/Graphics/SVG/1.1/DTD/svg11.dtd">
<svg version="1.1" xmlns="http://www.w3.org/2000/svg" xmlns:xlink="http://www.w3.org/1999/xlink" width="34" height="32" viewBox="0 0 34 32">
<g id="icomoon-ignore">
	<line stroke-width="1" x1="" y1="" x2="" y2="" stroke="#449FDB" opacity=""></line>
</g>
	<path d="M0 22.286v-19.429q0-1.179 0.839-2.018t2.018-0.839h28.571q1.179 0 2.018 0.839t0.839 2.018v19.429q0 1.179-0.839 2.018t-2.018 0.839h-9.714q0 0.661 0.286 1.384t0.571 1.268 0.286 0.777q0 0.464-0.339 0.804t-0.804 0.339h-9.143q-0.464 0-0.804-0.339t-0.339-0.804q0-0.25 0.286-0.786t0.571-1.25 0.286-1.393h-9.714q-1.179 0-2.018-0.839t-0.839-2.018zM2.286 17.714q0 0.232 0.17 0.402t0.402 0.17h28.571q0.232 0 0.402-0.17t0.17-0.402v-14.857q0-0.232-0.17-0.402t-0.402-0.17h-28.571q-0.232 0-0.402 0.17t-0.17 0.402v14.857z" fill="#000000"></path>
</svg>
