<?xml version="1.0" encoding="utf-8"?>
<!-- Generated by IcoMoon.io -->
<!DOCTYPE svg PUBLIC "-//W3C//DTD SVG 1.1//EN" "http://www.w3.org/Graphics/SVG/1.1/DTD/svg11.dtd">
<svg version="1.1" xmlns="http://www.w3.org/2000/svg" xmlns:xlink="http://www.w3.org/1999/xlink" width="32" height="32" viewBox="0 0 32 32">
<g id="icomoon-ignore">
	<line stroke-width="1" x1="" y1="" x2="" y2="" stroke="#449FDB" opacity=""></line>
</g>
	<path d="M0 16q0-3.732 1.839-6.884t4.991-4.991 6.884-1.839 6.884 1.839 4.991 4.991 1.839 6.884-1.839 6.884-4.991 4.991-6.884 1.839-6.884-1.839-4.991-4.991-1.839-6.884zM4 16q0 2.643 1.304 4.875t3.536 3.536 4.875 1.304 4.875-1.304 3.536-3.536 1.304-4.875-1.304-4.875-3.536-3.536-4.875-1.304-4.875 1.304-3.536 3.536-1.304 4.875zM9.143 16q0-1.893 1.339-3.232t3.232-1.339 3.232 1.339 1.339 3.232-1.339 3.232-3.232 1.339-3.232-1.339-1.339-3.232z" fill="#000000"></path>
</svg>
