<?xml version="1.0" encoding="utf-8"?>
<!-- Generated by IcoMoon.io -->
<!DOCTYPE svg PUBLIC "-//W3C//DTD SVG 1.1//EN" "http://www.w3.org/Graphics/SVG/1.1/DTD/svg11.dtd">
<svg version="1.1" xmlns="http://www.w3.org/2000/svg" xmlns:xlink="http://www.w3.org/1999/xlink" width="32" height="32" viewBox="0 0 32 32">
<g id="icomoon-ignore">
	<line stroke-width="1" x1="" y1="" x2="" y2="" stroke="#449FDB" opacity=""></line>
</g>
	<path d="M0 17.143q0-0.679 0.357-1.232 2.732-4.196 6.786-6.625t8.857-2.429q1.589 0 3.214 0.304l0.964-1.732q0.179-0.286 0.5-0.286 0.089 0 0.321 0.107t0.554 0.277 0.589 0.33 0.563 0.33 0.348 0.205q0.286 0.179 0.286 0.482 0 0.125-0.018 0.161-1.875 3.357-5.625 10.107t-5.643 10.125l-0.875 1.589q-0.179 0.286-0.5 0.286-0.214 0-2.393-1.25-0.286-0.179-0.286-0.5 0-0.214 0.786-1.554-2.554-1.161-4.705-3.089t-3.723-4.375q-0.357-0.554-0.357-1.232zM2.286 17.143q2.982 4.607 7.625 6.696l1.393-2.518q-1.554-1.125-2.429-2.839t-0.875-3.625q0-2.161 1.089-4.018-4.089 2.089-6.804 6.304zM10.571 14.857q0 0.357 0.25 0.607t0.607 0.25 0.607-0.25 0.25-0.607q0-1.536 1.089-2.625t2.625-1.089q0.357 0 0.607-0.25t0.25-0.607-0.25-0.607-0.607-0.25q-2.232 0-3.83 1.598t-1.598 3.83zM16 27.429l1.321-2.357q3.786-0.321 7.009-2.446t5.384-5.482q-2.054-3.196-5.036-5.25l1.125-2q1.696 1.143 3.259 2.732t2.58 3.286q0.357 0.607 0.357 1.232t-0.357 1.232q-0.696 1.143-1.946 2.589-2.679 3.071-6.205 4.768t-7.491 1.696zM18.857 22.321l5-8.964q0.143 0.804 0.143 1.5 0 2.482-1.411 4.527t-3.732 2.938z" fill="#000000"></path>
</svg>
