<?xml version="1.0" encoding="utf-8"?>
<!-- Generated by IcoMoon.io -->
<!DOCTYPE svg PUBLIC "-//W3C//DTD SVG 1.1//EN" "http://www.w3.org/Graphics/SVG/1.1/DTD/svg11.dtd">
<svg version="1.1" xmlns="http://www.w3.org/2000/svg" xmlns:xlink="http://www.w3.org/1999/xlink" width="32" height="32" viewBox="0 0 32 32">
<g id="icomoon-ignore">
	<line stroke-width="1" x1="" y1="" x2="" y2="" stroke="#449FDB" opacity=""></line>
</g>
	<path d="M0 24.571v-17.143q0-2.125 1.509-3.634t3.634-1.509h17.143q2.125 0 3.634 1.509t1.509 3.634v17.143q0 2.125-1.509 3.634t-3.634 1.509h-17.143q-2.125 0-3.634-1.509t-1.509-3.634zM4.893 16q0 1.571 1.107 2.679t2.679 1.107 2.679-1.107 1.107-2.679-1.107-2.679-2.679-1.107-2.679 1.107-1.107 2.679zM14.964 16q0 1.571 1.107 2.679t2.679 1.107 2.679-1.107 1.107-2.679-1.107-2.679-2.679-1.107-2.679 1.107-1.107 2.679z" fill="#000000"></path>
</svg>
