<?xml version="1.0" encoding="utf-8"?>
<!-- Generated by IcoMoon.io -->
<!DOCTYPE svg PUBLIC "-//W3C//DTD SVG 1.1//EN" "http://www.w3.org/Graphics/SVG/1.1/DTD/svg11.dtd">
<svg version="1.1" xmlns="http://www.w3.org/2000/svg" xmlns:xlink="http://www.w3.org/1999/xlink" width="30" height="32" viewBox="0 0 30 32">
<g id="icomoon-ignore">
	<line stroke-width="1" x1="" y1="" x2="" y2="" stroke="#449FDB" opacity=""></line>
</g>
	<path d="M0 29.714l0.036-1.411q0.411-0.125 1-0.223t1.018-0.188 0.884-0.259 0.795-0.518 0.554-0.902l4.232-11 5-12.929h2.286q0.143 0.25 0.196 0.375l3.661 8.571q0.589 1.393 1.893 4.598t2.036 4.902q0.268 0.607 1.036 2.58t1.286 3.009q0.357 0.804 0.625 1.018 0.339 0.268 1.571 0.527t1.5 0.366q0.107 0.679 0.107 1.018 0 0.071-0.009 0.232t-0.009 0.232q-1.125 0-3.393-0.143t-3.411-0.143q-1.357 0-3.839 0.125t-3.179 0.143q0-0.768 0.071-1.393l2.339-0.5q0.018 0 0.223-0.045t0.277-0.063 0.259-0.080 0.268-0.116 0.196-0.143 0.161-0.196 0.045-0.25q0-0.286-0.554-1.723t-1.286-3.17-0.75-1.786l-8.036-0.036q-0.464 1.036-1.366 3.491t-0.902 2.902q0 0.393 0.25 0.67t0.777 0.438 0.866 0.241 1.018 0.152 0.732 0.071q0.018 0.339 0.018 1.036 0 0.161-0.036 0.482-1.036 0-3.116-0.179t-3.116-0.179q-0.143 0-0.473 0.071t-0.384 0.071q-1.429 0.25-3.357 0.25zM9.911 18.018q0.589 0 2.438 0.036t2.866 0.036q0.339 0 1.018-0.036-1.554-4.518-3.286-8.071z" fill="#000000"></path>
</svg>
