<?xml version="1.0" encoding="utf-8"?>
<!-- Generated by IcoMoon.io -->
<!DOCTYPE svg PUBLIC "-//W3C//DTD SVG 1.1//EN" "http://www.w3.org/Graphics/SVG/1.1/DTD/svg11.dtd">
<svg version="1.1" xmlns="http://www.w3.org/2000/svg" xmlns:xlink="http://www.w3.org/1999/xlink" width="32" height="32" viewBox="0 0 32 32">
<g id="icomoon-ignore">
	<line stroke-width="1" x1="" y1="" x2="" y2="" stroke="#449FDB" opacity=""></line>
</g>
	<path d="M0 16q0-3.732 1.839-6.884t4.991-4.991 6.884-1.839 6.884 1.839 4.991 4.991 1.839 6.884-1.839 6.884-4.991 4.991-6.884 1.839-6.884-1.839-4.991-4.991-1.839-6.884zM4.036 9.946q0.125 0.125 0.214 0.143 0.071 0.018 0.089 0.161t0.045 0.196 0.205-0.054q0.161 0.143 0.054 0.339 0.018-0.018 0.786 0.482 0.339 0.304 0.375 0.375 0.054 0.196-0.179 0.321-0.018-0.036-0.161-0.161t-0.161-0.071q-0.054 0.089 0.009 0.33t0.188 0.223q-0.125 0-0.17 0.286t-0.045 0.634-0.018 0.42l0.036 0.018q-0.054 0.214 0.098 0.616t0.384 0.348q-0.232 0.054 0.357 0.768 0.107 0.143 0.143 0.161 0.054 0.036 0.214 0.134t0.268 0.179 0.179 0.188q0.071 0.089 0.179 0.402t0.25 0.42q-0.036 0.107 0.17 0.357t0.188 0.411q-0.018 0-0.045 0.018t-0.045 0.018q0.054 0.125 0.277 0.25t0.277 0.232q0.018 0.054 0.036 0.179t0.054 0.196 0.143 0.036q0.036-0.357-0.429-1.107-0.268-0.446-0.304-0.518-0.054-0.089-0.098-0.277t-0.080-0.259q0.036 0 0.107 0.027t0.152 0.063 0.134 0.071 0.036 0.054q-0.054 0.125 0.036 0.313t0.214 0.33 0.304 0.339 0.214 0.232q0.107 0.107 0.25 0.348t0 0.241q0.161 0 0.357 0.179t0.304 0.357q0.089 0.143 0.143 0.464t0.089 0.429q0.036 0.125 0.152 0.241t0.223 0.17l0.286 0.143t0.232 0.125q0.089 0.036 0.33 0.188t0.384 0.205q0.179 0.071 0.286 0.071t0.259-0.045 0.241-0.063q0.268-0.036 0.518 0.268t0.375 0.375q0.643 0.339 0.982 0.196-0.036 0.018 0.009 0.134t0.143 0.277 0.161 0.259 0.098 0.152q0.089 0.107 0.321 0.268t0.321 0.268q0.107-0.071 0.125-0.161-0.054 0.143 0.125 0.357t0.321 0.179q0.25-0.054 0.25-0.571-0.554 0.268-0.875-0.321 0-0.018-0.045-0.098t-0.071-0.152-0.045-0.152 0-0.134 0.089-0.054q0.161 0 0.179-0.063t-0.036-0.223-0.071-0.232q-0.018-0.143-0.196-0.357t-0.214-0.268q-0.089 0.161-0.286 0.143t-0.286-0.161q0 0.018-0.027 0.098t-0.027 0.116q-0.232 0-0.268-0.018 0.018-0.054 0.045-0.313t0.063-0.402q0.018-0.071 0.098-0.214t0.134-0.259 0.071-0.223-0.080-0.17-0.313-0.045q-0.339 0.018-0.464 0.357-0.018 0.054-0.054 0.188t-0.089 0.205-0.161 0.125q-0.125 0.054-0.429 0.036t-0.429-0.089q-0.232-0.143-0.402-0.518t-0.17-0.661q0-0.179 0.045-0.473t0.054-0.446-0.098-0.438q0.054-0.036 0.161-0.17t0.179-0.188q0.036-0.018 0.080-0.027t0.080 0 0.071-0.027 0.054-0.107q-0.018-0.018-0.071-0.054-0.054-0.054-0.071-0.054 0.125 0.054 0.509-0.027t0.491 0.027q0.268 0.196 0.393-0.036 0-0.018-0.045-0.17t-0.009-0.241q0.089 0.482 0.518 0.161 0.054 0.054 0.277 0.089t0.313 0.089q0.054 0.036 0.125 0.098t0.098 0.080 0.089-0.009 0.152-0.116q0.179 0.25 0.214 0.429 0.196 0.714 0.339 0.786 0.125 0.054 0.196 0.036t0.080-0.17 0-0.25-0.027-0.223l-0.018-0.143v-0.321l-0.018-0.143q-0.268-0.054-0.33-0.214t0.027-0.33 0.268-0.33q0.018-0.018 0.143-0.063t0.277-0.116 0.223-0.143q0.375-0.339 0.268-0.625 0.125 0 0.196-0.161-0.018 0-0.089-0.054t-0.134-0.089-0.080-0.036q0.161-0.089 0.036-0.286 0.089-0.054 0.134-0.196t0.134-0.179q0.161 0.214 0.375 0.036 0.125-0.143 0.018-0.286 0.089-0.125 0.366-0.188t0.33-0.17q0.125 0.036 0.143-0.036t0.018-0.214 0.054-0.214q0.071-0.089 0.268-0.161t0.232-0.089l0.304-0.196q0.054-0.071 0-0.071 0.321 0.036 0.554-0.196 0.179-0.196-0.107-0.357 0.054-0.107-0.054-0.17t-0.268-0.098q0.054-0.018 0.205-0.009t0.188-0.027q0.268-0.179-0.125-0.286-0.304-0.089-0.768 0.214-0.036 0.018-0.17 0.17t-0.241 0.17q0.036 0 0.080-0.089t0.089-0.196 0.063-0.125q0.107-0.125 0.393-0.268 0.25-0.107 0.929-0.214 0.607-0.143 0.911 0.196-0.036-0.036 0.17-0.232t0.259-0.214q0.054-0.036 0.268-0.080t0.268-0.134l0.036-0.393q-0.214 0.018-0.313-0.125t-0.116-0.375q0 0.036-0.107 0.143 0-0.125-0.080-0.143t-0.205 0.018-0.161 0.018q-0.179-0.054-0.268-0.134t-0.143-0.295-0.071-0.268q-0.036-0.089-0.17-0.188t-0.17-0.188q-0.018-0.036-0.045-0.098t-0.054-0.116-0.071-0.098-0.098-0.045-0.125 0.089-0.134 0.179-0.080 0.089q-0.054-0.036-0.107-0.027t-0.080 0.018-0.080 0.054-0.089 0.063q-0.054 0.036-0.152 0.054t-0.152 0.036q0.268-0.089-0.018-0.196-0.179-0.071-0.286-0.054 0.161-0.071 0.134-0.214t-0.152-0.25h0.089q-0.018-0.071-0.152-0.152t-0.313-0.152-0.232-0.107q-0.143-0.089-0.607-0.17t-0.589-0.009q-0.089 0.107-0.080 0.188t0.071 0.25 0.063 0.223q0.018 0.107-0.098 0.232t-0.116 0.214q0 0.125 0.25 0.277t0.179 0.384q-0.054 0.143-0.286 0.286t-0.286 0.214q-0.089 0.143-0.027 0.33t0.188 0.295q0.036 0.036 0.027 0.071t-0.063 0.080-0.098 0.071-0.116 0.063l-0.054 0.036q-0.196 0.089-0.366-0.107t-0.241-0.464q-0.125-0.446-0.286-0.536-0.411-0.143-0.518 0.018-0.089-0.232-0.732-0.464-0.446-0.161-1.036-0.071 0.107-0.018 0-0.268-0.125-0.268-0.339-0.214 0.054-0.107 0.071-0.313t0.018-0.241q0.054-0.232 0.214-0.411 0.018-0.018 0.125-0.152t0.17-0.241 0.009-0.107q0.625 0.071 0.893-0.196 0.089-0.089 0.205-0.304t0.188-0.304q0.161-0.107 0.25-0.098t0.259 0.098 0.259 0.089q0.25 0.018 0.277-0.196t-0.134-0.357q0.214 0.018 0.054-0.304-0.089-0.125-0.143-0.161-0.214-0.071-0.482 0.089-0.143 0.071 0.036 0.143-0.018-0.018-0.17 0.188t-0.295 0.313-0.286-0.089q-0.018-0.018-0.098-0.241t-0.17-0.241q-0.143 0-0.286 0.268 0.054-0.143-0.196-0.268t-0.429-0.143q0.339-0.214-0.143-0.482-0.125-0.071-0.366-0.089t-0.348 0.071q-0.089 0.125-0.098 0.205t0.089 0.143 0.188 0.098 0.205 0.071 0.152 0.054q0.25 0.179 0.143 0.25-0.036 0.018-0.152 0.063t-0.205 0.080-0.107 0.071q-0.054 0.071 0 0.25t-0.036 0.25q-0.089-0.089-0.161-0.313t-0.125-0.295q0.125 0.161-0.446 0.107l-0.179-0.018q-0.071 0-0.286 0.036t-0.366 0.018-0.241-0.143q-0.071-0.143 0-0.357 0.018-0.071 0.071-0.036-0.071-0.054-0.196-0.17t-0.179-0.152q-0.821 0.268-1.679 0.732 0.107 0.018 0.214-0.018 0.089-0.036 0.232-0.116t0.179-0.098q0.607-0.25 0.75-0.125l0.089-0.089q0.25 0.286 0.357 0.446-0.125-0.071-0.536-0.018-0.357 0.107-0.393 0.214 0.125 0.214 0.089 0.321-0.071-0.054-0.205-0.179t-0.259-0.196-0.268-0.089q-0.286 0-0.393 0.018-2.607 1.429-4.196 3.964zM15.661 26.964q0 0.107 0.036 0.286 3.679-0.643 6.268-3.375-0.054-0.054-0.223-0.080t-0.223-0.063q-0.321-0.125-0.429-0.143 0.018-0.125-0.045-0.232t-0.143-0.161-0.223-0.143-0.196-0.125q-0.036-0.036-0.125-0.107t-0.125-0.098-0.134-0.080-0.152-0.036-0.179 0.018l-0.054 0.018q-0.054 0.018-0.098 0.045t-0.098 0.054-0.071 0.054 0 0.045q-0.375-0.304-0.643-0.393-0.089-0.018-0.196-0.098t-0.188-0.125-0.179-0.027-0.205 0.125q-0.089 0.089-0.107 0.268t-0.036 0.232q-0.125-0.089 0-0.313t0.036-0.33q-0.054-0.107-0.188-0.080t-0.214 0.080-0.205 0.152-0.161 0.116-0.152 0.098-0.152 0.134q-0.054 0.071-0.107 0.214t-0.089 0.196q-0.036-0.071-0.205-0.116t-0.17-0.098q0.036 0.179 0.071 0.625t0.089 0.679q0.125 0.554-0.214 0.857-0.482 0.446-0.518 0.714-0.071 0.393 0.214 0.464 0 0.125-0.143 0.366t-0.125 0.384z" fill="#000000"></path>
</svg>
