<?xml version="1.0" encoding="utf-8"?>
<!-- Generated by IcoMoon.io -->
<!DOCTYPE svg PUBLIC "-//W3C//DTD SVG 1.1//EN" "http://www.w3.org/Graphics/SVG/1.1/DTD/svg11.dtd">
<svg version="1.1" xmlns="http://www.w3.org/2000/svg" xmlns:xlink="http://www.w3.org/1999/xlink" width="34" height="32" viewBox="0 0 34 32">
<g id="icomoon-ignore">
	<line stroke-width="1" x1="" y1="" x2="" y2="" stroke="#449FDB" opacity=""></line>
</g>
	<path d="M0 15.446q0-6.304 2.214-6.304 0.107 0 0.777 0.375t1.741 0.759 2.125 0.384q1.196 0 2.375-0.411-0.089 0.661-0.089 1.179 0 2.482 1.446 4.571-2.893 0.089-4.732 2.286h-2.393q-1.464 0-2.464-0.723t-1-2.116zM2.286 4.571q0-1.893 1.339-3.232t3.232-1.339 3.232 1.339 1.339 3.232-1.339 3.232-3.232 1.339-3.232-1.339-1.339-3.232zM4.571 27.375q0-0.946 0.063-1.848t0.25-1.946 0.473-1.938 0.768-1.741 1.107-1.446 1.527-0.955 1.991-0.357q0.179 0 0.768 0.384t1.304 0.857 1.911 0.857 2.411 0.384 2.411-0.384 1.911-0.857 1.304-0.857 0.768-0.384q1.089 0 1.991 0.357t1.527 0.955 1.107 1.446 0.768 1.741 0.473 1.938 0.25 1.946 0.063 1.848q0 2.143-1.304 3.384t-3.464 1.241h-15.607q-2.161 0-3.464-1.241t-1.304-3.384zM10.286 11.429q0-2.839 2.009-4.848t4.848-2.009 4.848 2.009 2.009 4.848-2.009 4.848-4.848 2.009-4.848-2.009-2.009-4.848zM22.857 4.571q0-1.893 1.339-3.232t3.232-1.339 3.232 1.339 1.339 3.232-1.339 3.232-3.232 1.339-3.232-1.339-1.339-3.232zM23.696 16q1.446-2.089 1.446-4.571 0-0.518-0.089-1.179 1.179 0.411 2.375 0.411 1.054 0 2.125-0.384t1.741-0.759 0.777-0.375q2.214 0 2.214 6.304 0 1.393-1 2.116t-2.464 0.723h-2.393q-1.839-2.196-4.732-2.286z" fill="#000000"></path>
</svg>
