<?xml version="1.0" encoding="utf-8"?>
<!-- Generated by IcoMoon.io -->
<!DOCTYPE svg PUBLIC "-//W3C//DTD SVG 1.1//EN" "http://www.w3.org/Graphics/SVG/1.1/DTD/svg11.dtd">
<svg version="1.1" xmlns="http://www.w3.org/2000/svg" xmlns:xlink="http://www.w3.org/1999/xlink" width="18" height="32" viewBox="0 0 18 32">
<g id="icomoon-ignore">
	<line stroke-width="1" x1="" y1="" x2="" y2="" stroke="#449FDB" opacity=""></line>
</g>
	<path d="M0 29.679l0.304-1.518q0.107-0.036 1.455-0.384t1.991-0.67q0.5-0.625 0.732-1.804 0.018-0.125 1.107-5.161t2.036-9.705 0.929-5.295v-0.446q-0.429-0.232-0.973-0.33t-1.241-0.143-1.036-0.098l0.339-1.839q0.589 0.036 2.143 0.116t2.67 0.125 2.152 0.045q0.857 0 1.759-0.045t2.161-0.125 1.759-0.116q-0.089 0.696-0.339 1.589-0.536 0.179-1.813 0.509t-1.938 0.598q-0.143 0.339-0.25 0.759t-0.161 0.714-0.134 0.813-0.116 0.75q-0.482 2.643-1.563 7.491t-1.384 6.348q-0.036 0.161-0.232 1.036t-0.357 1.607-0.286 1.491-0.107 1.027l0.018 0.321q0.304 0.071 3.304 0.554-0.054 0.786-0.286 1.768-0.196 0-0.58 0.027t-0.58 0.027q-0.518 0-1.554-0.179t-1.536-0.179q-2.464-0.036-3.679-0.036-0.911 0-2.554 0.161t-2.161 0.196z" fill="#000000"></path>
</svg>
