<?xml version="1.0" encoding="utf-8"?>
<!-- Generated by IcoMoon.io -->
<!DOCTYPE svg PUBLIC "-//W3C//DTD SVG 1.1//EN" "http://www.w3.org/Graphics/SVG/1.1/DTD/svg11.dtd">
<svg version="1.1" xmlns="http://www.w3.org/2000/svg" xmlns:xlink="http://www.w3.org/1999/xlink" width="34" height="32" viewBox="0 0 34 32">
<g id="icomoon-ignore">
	<line stroke-width="1" x1="" y1="" x2="" y2="" stroke="#449FDB" opacity=""></line>
</g>
	<path d="M0 25.143v-16q0-0.946 0.67-1.616t1.616-0.67h29.714q0.946 0 1.616 0.67t0.67 1.616v16q0 0.946-0.67 1.616t-1.616 0.67h-29.714q-0.946 0-1.616-0.67t-0.67-1.616zM2.286 25.143h29.714v-16h-29.714v16zM4.571 22.571v-1.714q0-0.286 0.286-0.286h1.714q0.286 0 0.286 0.286v1.714q0 0.286-0.286 0.286h-1.714q-0.286 0-0.286-0.286zM4.571 18v-1.714q0-0.286 0.286-0.286h4q0.286 0 0.286 0.286v1.714q0 0.286-0.286 0.286h-4q-0.286 0-0.286-0.286zM4.571 13.429v-1.714q0-0.286 0.286-0.286h1.714q0.286 0 0.286 0.286v1.714q0 0.286-0.286 0.286h-1.714q-0.286 0-0.286-0.286zM9.143 22.571v-1.714q0-0.286 0.286-0.286h15.429q0.286 0 0.286 0.286v1.714q0 0.286-0.286 0.286h-15.429q-0.286 0-0.286-0.286zM9.143 13.429v-1.714q0-0.286 0.286-0.286h1.714q0.286 0 0.286 0.286v1.714q0 0.286-0.286 0.286h-1.714q-0.286 0-0.286-0.286zM11.429 18v-1.714q0-0.286 0.286-0.286h1.714q0.286 0 0.286 0.286v1.714q0 0.286-0.286 0.286h-1.714q-0.286 0-0.286-0.286zM13.714 13.429v-1.714q0-0.286 0.286-0.286h1.714q0.286 0 0.286 0.286v1.714q0 0.286-0.286 0.286h-1.714q-0.286 0-0.286-0.286zM16 18v-1.714q0-0.286 0.286-0.286h1.714q0.286 0 0.286 0.286v1.714q0 0.286-0.286 0.286h-1.714q-0.286 0-0.286-0.286zM18.286 13.429v-1.714q0-0.286 0.286-0.286h1.714q0.286 0 0.286 0.286v1.714q0 0.286-0.286 0.286h-1.714q-0.286 0-0.286-0.286zM20.571 18v-1.714q0-0.286 0.286-0.286h1.714q0.286 0 0.286 0.286v1.714q0 0.286-0.286 0.286h-1.714q-0.286 0-0.286-0.286zM22.857 13.429v-1.714q0-0.286 0.286-0.286h1.714q0.286 0 0.286 0.286v1.714q0 0.286-0.286 0.286h-1.714q-0.286 0-0.286-0.286zM25.143 18v-1.714q0-0.286 0.286-0.286h2v-4.286q0-0.286 0.286-0.286h1.714q0.286 0 0.286 0.286v6.286q0 0.286-0.286 0.286h-4q-0.286 0-0.286-0.286zM27.429 22.571v-1.714q0-0.286 0.286-0.286h1.714q0.286 0 0.286 0.286v1.714q0 0.286-0.286 0.286h-1.714q-0.286 0-0.286-0.286z" fill="#000000"></path>
</svg>
