<?xml version="1.0" encoding="utf-8"?>
<!-- Generated by IcoMoon.io -->
<!DOCTYPE svg PUBLIC "-//W3C//DTD SVG 1.1//EN" "http://www.w3.org/Graphics/SVG/1.1/DTD/svg11.dtd">
<svg version="1.1" xmlns="http://www.w3.org/2000/svg" xmlns:xlink="http://www.w3.org/1999/xlink" width="34" height="32" viewBox="0 0 34 32">
<g id="icomoon-ignore">
	<line stroke-width="1" x1="" y1="" x2="" y2="" stroke="#449FDB" opacity=""></line>
</g>
	<path d="M0 25.714v-1.714h34.286v1.714q0 0.714-0.839 1.214t-2.018 0.5h-28.571q-1.179 0-2.018-0.5t-0.839-1.214zM4.571 20v-12.571q0-1.179 0.839-2.018t2.018-0.839h19.429q1.179 0 2.018 0.839t0.839 2.018v12.571q0 1.179-0.839 2.018t-2.018 0.839h-19.429q-1.179 0-2.018-0.839t-0.839-2.018zM6.857 20q0 0.232 0.17 0.402t0.402 0.17h19.429q0.232 0 0.402-0.17t0.17-0.402v-12.571q0-0.232-0.17-0.402t-0.402-0.17h-19.429q-0.232 0-0.402 0.17t-0.17 0.402v12.571zM15.429 25.429q0 0.286 0.286 0.286h2.857q0.286 0 0.286-0.286t-0.286-0.286h-2.857q-0.286 0-0.286 0.286z" fill="#000000"></path>
</svg>
