<?xml version="1.0" encoding="utf-8"?>
<!-- Generated by IcoMoon.io -->
<!DOCTYPE svg PUBLIC "-//W3C//DTD SVG 1.1//EN" "http://www.w3.org/Graphics/SVG/1.1/DTD/svg11.dtd">
<svg version="1.1" xmlns="http://www.w3.org/2000/svg" xmlns:xlink="http://www.w3.org/1999/xlink" width="32" height="32" viewBox="0 0 32 32">
<g id="icomoon-ignore">
	<line stroke-width="1" x1="" y1="" x2="" y2="" stroke="#449FDB" opacity=""></line>
</g>
	<path d="M0.268 19.607q0-0.911 0.42-1.661t1.009-1.214 1.179-0.848 1.009-0.777 0.42-0.804q0-0.446-0.259-0.688t-0.705-0.241q-0.821 0-1.446 1.036l-1.518-1.054q0.429-0.911 1.277-1.42t1.884-0.509q1.304 0 2.196 0.741t0.893 2.009q0 0.893-0.607 1.634t-1.339 1.152-1.348 0.902-0.634 0.938h2.268v-1.071h1.875v2.839h-6.464q-0.107-0.643-0.107-0.964zM0.339 30.821l1.018-1.571q0.875 0.804 1.893 0.804 0.518 0 0.902-0.259t0.384-0.759q0-1.143-1.875-1l-0.464-1q0.143-0.179 0.58-0.777t0.759-0.964 0.661-0.688v-0.018q-0.286 0-0.866 0.018t-0.866 0.018v0.946h-1.893v-2.714h5.946v1.571l-1.696 2.054q0.911 0.214 1.446 0.875t0.536 1.571q0 1.429-0.973 2.25t-2.42 0.821q-1.893 0-3.071-1.179zM0.607 2.429l2.429-2.268h1.893v7.214h1.929v1.768h-5.982v-1.768h1.911q0-0.732 0.009-2.179t0.009-2.161v-0.214h-0.036q-0.143 0.304-0.893 0.964zM9.143 26.857v-3.429q0-0.25 0.161-0.411t0.411-0.161h21.714q0.232 0 0.402 0.17t0.17 0.402v3.429q0 0.232-0.17 0.402t-0.402 0.17h-21.714q-0.232 0-0.402-0.17t-0.17-0.402zM9.143 17.714v-3.429q0-0.25 0.161-0.411t0.411-0.161h21.714q0.232 0 0.402 0.17t0.17 0.402v3.429q0 0.232-0.17 0.402t-0.402 0.17h-21.714q-0.232 0-0.402-0.17t-0.17-0.402zM9.143 8.571v-3.429q0-0.232 0.17-0.402t0.402-0.17h21.714q0.232 0 0.402 0.17t0.17 0.402v3.429q0 0.232-0.17 0.402t-0.402 0.17h-21.714q-0.232 0-0.402-0.17t-0.17-0.402z" fill="#000000"></path>
</svg>
