<?xml version="1.0" encoding="utf-8"?>
<!-- Generated by IcoMoon.io -->
<!DOCTYPE svg PUBLIC "-//W3C//DTD SVG 1.1//EN" "http://www.w3.org/Graphics/SVG/1.1/DTD/svg11.dtd">
<svg version="1.1" xmlns="http://www.w3.org/2000/svg" xmlns:xlink="http://www.w3.org/1999/xlink" width="14" height="32" viewBox="0 0 14 32">
<g id="icomoon-ignore">
	<line stroke-width="1" x1="" y1="" x2="" y2="" stroke="#449FDB" opacity=""></line>
</g>
	<path d="M0 25.143v-18.286q0-0.929 0.679-1.607t1.607-0.679h9.143q0.929 0 1.607 0.679t0.679 1.607v18.286q0 0.929-0.679 1.607t-1.607 0.679h-9.143q-0.929 0-1.607-0.679t-0.679-1.607zM1.714 22.286q0 0.232 0.17 0.402t0.402 0.17h9.143q0.232 0 0.402-0.17t0.17-0.402v-12.571q0-0.232-0.17-0.402t-0.402-0.17h-9.143q-0.232 0-0.402 0.17t-0.17 0.402v12.571zM5.143 7.143q0 0.286 0.286 0.286h2.857q0.286 0 0.286-0.286t-0.286-0.286h-2.857q-0.286 0-0.286 0.286zM5.429 25.143q0 0.589 0.42 1.009t1.009 0.42 1.009-0.42 0.42-1.009-0.42-1.009-1.009-0.42-1.009 0.42-0.42 1.009z" fill="#000000"></path>
</svg>
