<?xml version="1.0" encoding="utf-8"?>
<!-- Generated by IcoMoon.io -->
<!DOCTYPE svg PUBLIC "-//W3C//DTD SVG 1.1//EN" "http://www.w3.org/Graphics/SVG/1.1/DTD/svg11.dtd">
<svg version="1.1" xmlns="http://www.w3.org/2000/svg" xmlns:xlink="http://www.w3.org/1999/xlink" width="30" height="32" viewBox="0 0 30 32">
<g id="icomoon-ignore">
	<line stroke-width="1" x1="" y1="" x2="" y2="" stroke="#449FDB" opacity=""></line>
</g>
	<path d="M0 24v-12.571q0-1.857 0.723-3.545t1.955-2.92 2.92-1.955 3.545-0.723h1.143q0.464 0 0.804 0.339t0.339 0.804v2.286q0 0.464-0.339 0.804t-0.804 0.339h-1.143q-1.893 0-3.232 1.339t-1.339 3.232v0.571q0 0.714 0.5 1.214t1.214 0.5h4q1.429 0 2.429 1t1 2.429v6.857q0 1.429-1 2.429t-2.429 1h-6.857q-1.429 0-2.429-1t-1-2.429zM16 24v-12.571q0-1.857 0.723-3.545t1.955-2.92 2.92-1.955 3.545-0.723h1.143q0.464 0 0.804 0.339t0.339 0.804v2.286q0 0.464-0.339 0.804t-0.804 0.339h-1.143q-1.893 0-3.232 1.339t-1.339 3.232v0.571q0 0.714 0.5 1.214t1.214 0.5h4q1.429 0 2.429 1t1 2.429v6.857q0 1.429-1 2.429t-2.429 1h-6.857q-1.429 0-2.429-1t-1-2.429z" fill="#000000"></path>
</svg>
