<?xml version="1.0" encoding="utf-8"?>
<!-- Generated by IcoMoon.io -->
<!DOCTYPE svg PUBLIC "-//W3C//DTD SVG 1.1//EN" "http://www.w3.org/Graphics/SVG/1.1/DTD/svg11.dtd">
<svg version="1.1" xmlns="http://www.w3.org/2000/svg" xmlns:xlink="http://www.w3.org/1999/xlink" width="32" height="32" viewBox="0 0 32 32">
<g id="icomoon-ignore">
	<line stroke-width="1" x1="" y1="" x2="" y2="" stroke="#449FDB" opacity=""></line>
</g>
	<path d="M0 16q0-2.786 1.089-5.321t2.929-4.375 4.375-2.929 5.321-1.089q2.625 0 5.080 0.991t4.366 2.795l2.321-2.304q0.518-0.554 1.25-0.25 0.696 0.304 0.696 1.054v8q0 0.464-0.339 0.804t-0.804 0.339h-8q-0.75 0-1.054-0.714-0.304-0.696 0.25-1.232l2.464-2.464q-2.643-2.446-6.232-2.446-1.857 0-3.545 0.723t-2.92 1.955-1.955 2.92-0.723 3.545 0.723 3.545 1.955 2.92 2.92 1.955 3.545 0.723q2.125 0 4.018-0.929t3.196-2.625q0.125-0.179 0.411-0.214 0.25 0 0.446 0.161l2.446 2.464q0.161 0.143 0.17 0.366t-0.134 0.402q-1.946 2.357-4.714 3.652t-5.839 1.295q-2.786 0-5.321-1.089t-4.375-2.929-2.929-4.375-1.089-5.321z" fill="#000000"></path>
</svg>
