<?xml version="1.0" encoding="utf-8"?>
<!-- Generated by IcoMoon.io -->
<!DOCTYPE svg PUBLIC "-//W3C//DTD SVG 1.1//EN" "http://www.w3.org/Graphics/SVG/1.1/DTD/svg11.dtd">
<svg version="1.1" xmlns="http://www.w3.org/2000/svg" xmlns:xlink="http://www.w3.org/1999/xlink" width="32" height="32" viewBox="0 0 32 32">
<g id="icomoon-ignore">
	<line stroke-width="1" x1="" y1="" x2="" y2="" stroke="#449FDB" opacity=""></line>
</g>
	<path d="M0 12.571v-8q0-0.75 0.714-1.054 0.696-0.304 1.232 0.25l2.321 2.304q1.911-1.804 4.366-2.795t5.080-0.991q2.786 0 5.321 1.089t4.375 2.929 2.929 4.375 1.089 5.321-1.089 5.321-2.929 4.375-4.375 2.929-5.321 1.089q-3.071 0-5.839-1.295t-4.714-3.652q-0.125-0.179-0.116-0.402t0.152-0.366l2.446-2.464q0.179-0.161 0.446-0.161 0.286 0.036 0.411 0.214 1.304 1.696 3.196 2.625t4.018 0.929q1.857 0 3.545-0.723t2.92-1.955 1.955-2.92 0.723-3.545-0.723-3.545-1.955-2.92-2.92-1.955-3.545-0.723q-1.75 0-3.357 0.634t-2.857 1.813l2.446 2.464q0.554 0.536 0.25 1.232-0.304 0.714-1.054 0.714h-8q-0.464 0-0.804-0.339t-0.339-0.804z" fill="#000000"></path>
</svg>
