<?xml version="1.0" encoding="utf-8"?>
<!-- Generated by IcoMoon.io -->
<!DOCTYPE svg PUBLIC "-//W3C//DTD SVG 1.1//EN" "http://www.w3.org/Graphics/SVG/1.1/DTD/svg11.dtd">
<svg version="1.1" xmlns="http://www.w3.org/2000/svg" xmlns:xlink="http://www.w3.org/1999/xlink" width="32" height="32" viewBox="0 0 32 32">
<g id="icomoon-ignore">
	<line stroke-width="1" x1="" y1="" x2="" y2="" stroke="#449FDB" opacity=""></line>
</g>
	<path d="M0 28v-24q0-0.714 0.5-1.214t1.214-0.5h16.571q0.714 0 1.571 0.357t1.357 0.857l5 5q0.5 0.5 0.857 1.357t0.357 1.571v16.571q0 0.714-0.5 1.214t-1.214 0.5h-24q-0.714 0-1.214-0.5t-0.5-1.214zM2.286 27.429h2.286v-7.429q0-0.714 0.5-1.214t1.214-0.5h14.857q0.714 0 1.214 0.5t0.5 1.214v7.429h2.286v-16q0-0.25-0.179-0.688t-0.357-0.616l-5.018-5.018q-0.179-0.179-0.607-0.357t-0.696-0.179v7.429q0 0.714-0.5 1.214t-1.214 0.5h-10.286q-0.714 0-1.214-0.5t-0.5-1.214v-7.429h-2.286v22.857zM6.857 27.429h13.714v-6.857h-13.714v6.857zM11.429 10.857q0 0.232 0.17 0.402t0.402 0.17h3.429q0.232 0 0.402-0.17t0.17-0.402v-5.714q0-0.232-0.17-0.402t-0.402-0.17h-3.429q-0.232 0-0.402 0.17t-0.17 0.402v5.714z" fill="#000000"></path>
</svg>
