<?xml version="1.0" encoding="utf-8"?>
<!-- Generated by IcoMoon.io -->
<!DOCTYPE svg PUBLIC "-//W3C//DTD SVG 1.1//EN" "http://www.w3.org/Graphics/SVG/1.1/DTD/svg11.dtd">
<svg version="1.1" xmlns="http://www.w3.org/2000/svg" xmlns:xlink="http://www.w3.org/1999/xlink" width="30" height="32" viewBox="0 0 30 32">
<g id="icomoon-ignore">
	<line stroke-width="1" x1="" y1="" x2="" y2="" stroke="#449FDB" opacity=""></line>
</g>
	<path d="M0 22.286v-14.857q0-2.125 1.509-3.634t3.634-1.509h4.554q0.232 0 0.402 0.17t0.17 0.402q0 0.482-0.464 0.571-1.375 0.464-2.375 1.071-0.179 0.071-0.286 0.071h-2q-1.179 0-2.018 0.839t-0.839 2.018v14.857q0 1.179 0.839 2.018t2.018 0.839h14.857q1.179 0 2.018-0.839t0.839-2.018v-3.821q0-0.339 0.321-0.518 0.5-0.232 0.964-0.661 0.286-0.286 0.625-0.143 0.375 0.161 0.375 0.518v4.625q0 2.125-1.509 3.634t-3.634 1.509h-14.857q-2.125 0-3.634-1.509t-1.509-3.634zM4.571 14.857q0-0.875 0.063-1.625t0.25-1.607 0.5-1.571 0.839-1.455 1.223-1.321 1.688-1.098 2.223-0.866 2.848-0.545 3.509-0.196h2.857v-3.429q0-0.75 0.696-1.054 0.232-0.089 0.446-0.089 0.464 0 0.804 0.339l6.857 6.857q0.339 0.339 0.339 0.804t-0.339 0.804l-6.857 6.857q-0.321 0.339-0.804 0.339-0.214 0-0.446-0.089-0.696-0.304-0.696-1.054v-3.429h-2.857q-5.768 0-7.821 2.339-2.125 2.446-1.321 8.446 0.054 0.411-0.357 0.607-0.143 0.036-0.214 0.036-0.286 0-0.464-0.232-0.179-0.25-0.375-0.554t-0.705-1.223-0.884-1.777-0.688-2.036-0.313-2.179z" fill="#000000"></path>
</svg>
