<?xml version="1.0" encoding="utf-8"?>
<!-- Generated by IcoMoon.io -->
<!DOCTYPE svg PUBLIC "-//W3C//DTD SVG 1.1//EN" "http://www.w3.org/Graphics/SVG/1.1/DTD/svg11.dtd">
<svg version="1.1" xmlns="http://www.w3.org/2000/svg" xmlns:xlink="http://www.w3.org/1999/xlink" width="32" height="32" viewBox="0 0 32 32">
<g id="icomoon-ignore">
	<line stroke-width="1" x1="" y1="" x2="" y2="" stroke="#449FDB" opacity=""></line>
</g>
	<path d="M0.607 25.5q0.143-0.357 0.536-0.357h3.429v-24.571q0-0.25 0.161-0.411t0.411-0.161h3.429q0.25 0 0.411 0.161t0.161 0.411v24.571h3.429q0.25 0 0.411 0.161t0.161 0.411q0 0.214-0.179 0.429l-5.696 5.696q-0.179 0.161-0.411 0.161-0.214 0-0.411-0.161l-5.714-5.714q-0.268-0.286-0.125-0.625zM16 28q0-0.25 0.161-0.411t0.411-0.161h4.571q0.25 0 0.411 0.161t0.161 0.411v3.429q0 0.25-0.161 0.411t-0.411 0.161h-4.571q-0.25 0-0.411-0.161t-0.161-0.411v-3.429zM16 22.286v-3.429q0-0.25 0.161-0.411t0.411-0.161h8q0.25 0 0.411 0.161t0.161 0.411v3.429q0 0.25-0.161 0.411t-0.411 0.161h-8q-0.25 0-0.411-0.161t-0.161-0.411zM16 13.143v-3.429q0-0.25 0.161-0.411t0.411-0.161h11.429q0.25 0 0.411 0.161t0.161 0.411v3.429q0 0.25-0.161 0.411t-0.411 0.161h-11.429q-0.25 0-0.411-0.161t-0.161-0.411zM16 4v-3.429q0-0.25 0.161-0.411t0.411-0.161h14.857q0.25 0 0.411 0.161t0.161 0.411v3.429q0 0.25-0.161 0.411t-0.411 0.161h-14.857q-0.25 0-0.411-0.161t-0.161-0.411z" fill="#000000"></path>
</svg>
