<?xml version="1.0" encoding="utf-8"?>
<!-- Generated by IcoMoon.io -->
<!DOCTYPE svg PUBLIC "-//W3C//DTD SVG 1.1//EN" "http://www.w3.org/Graphics/SVG/1.1/DTD/svg11.dtd">
<svg version="1.1" xmlns="http://www.w3.org/2000/svg" xmlns:xlink="http://www.w3.org/1999/xlink" width="25" height="32" viewBox="0 0 25 32">
<g id="icomoon-ignore">
	<line stroke-width="1" x1="" y1="" x2="" y2="" stroke="#449FDB" opacity=""></line>
</g>
	<path d="M0 31.982v-13.143h2.161v11.036h16.571v-11.036h2.143v12.518l-0.018 0.625v0.018l-20.857-0.018zM3.946 27.732v-2.696l12.625-0.018v2.696zM4.054 23.089l0.25-2.679 12.571 1.161-0.232 2.679zM4.821 17.375l0.696-2.607 12.196 3.268-0.696 2.607zM7.054 10.857l1.375-2.321 10.875 6.429-1.375 2.321zM12.625 4.161l2.232-1.536 7.107 10.446-2.214 1.518zM20.286 0.464l2.661-0.464 2.161 12.446-2.661 0.464z" fill="#000000"></path>
</svg>
