<?xml version="1.0" encoding="utf-8"?>
<!-- Generated by IcoMoon.io -->
<!DOCTYPE svg PUBLIC "-//W3C//DTD SVG 1.1//EN" "http://www.w3.org/Graphics/SVG/1.1/DTD/svg11.dtd">
<svg version="1.1" xmlns="http://www.w3.org/2000/svg" xmlns:xlink="http://www.w3.org/1999/xlink" width="32" height="32" viewBox="0 0 32 32">
<g id="icomoon-ignore">
	<line stroke-width="1" x1="" y1="" x2="" y2="" stroke="#449FDB" opacity=""></line>
</g>
	<path d="M0 17.714v-1.143q0-0.25 0.161-0.411t0.411-0.161h30.857q0.25 0 0.411 0.161t0.161 0.411v1.143q0 0.25-0.161 0.411t-0.411 0.161h-30.857q-0.25 0-0.411-0.161t-0.161-0.411zM6.857 10.071q0-3.232 2.393-5.518 2.375-2.268 7.018-2.268 0.893 0 2.982 0.339 1.179 0.214 3.161 0.857 0.179 0.679 0.375 2.107 0.25 2.196 0.25 3.268 0 0.321-0.089 0.804l-0.214 0.054-1.5-0.107-0.25-0.036q-0.893-2.661-1.839-3.661-1.571-1.625-3.75-1.625-2.036 0-3.25 1.054-1.196 1.036-1.196 2.607 0 1.304 1.179 2.5t4.982 2.304q1.232 0.357 3.089 1.179 1.036 0.5 1.696 0.929h-13.268q-0.5-0.625-0.911-1.429-0.857-1.732-0.857-3.357zM7.393 24.679q-0.018-0.536 0-1.214l0.036-0.661v-0.786l1.821-0.036q0.268 0.607 0.536 1.268t0.402 1 0.223 0.482q0.625 1.018 1.429 1.679 0.768 0.643 1.875 1.018 1.054 0.393 2.357 0.393 1.143 0 2.482-0.482 1.375-0.464 2.179-1.536 0.839-1.089 0.839-2.304 0-1.5-1.446-2.804-0.607-0.518-2.446-1.268h7.339q0.125 0.696 0.125 1.643 0 1.982-0.732 3.786-0.411 0.982-1.268 1.857-0.661 0.625-1.946 1.446-1.429 0.857-2.732 1.179-1.429 0.375-3.625 0.375-2.036 0-3.482-0.411l-2.5-0.714q-1.018-0.286-1.286-0.5-0.143-0.143-0.143-0.393v-0.232q0-1.929-0.036-2.786z" fill="#000000"></path>
</svg>
