<?xml version="1.0" encoding="utf-8"?>
<!-- Generated by IcoMoon.io -->
<!DOCTYPE svg PUBLIC "-//W3C//DTD SVG 1.1//EN" "http://www.w3.org/Graphics/SVG/1.1/DTD/svg11.dtd">
<svg version="1.1" xmlns="http://www.w3.org/2000/svg" xmlns:xlink="http://www.w3.org/1999/xlink" width="21" height="32" viewBox="0 0 21 32">
<g id="icomoon-ignore">
	<line stroke-width="1" x1="" y1="" x2="" y2="" stroke="#449FDB" opacity=""></line>
</g>
	<path d="M0 24.571v-19.429q0-1.179 0.839-2.018t2.018-0.839h14.857q1.179 0 2.018 0.839t0.839 2.018v19.429q0 1.179-0.839 2.018t-2.018 0.839h-14.857q-1.179 0-2.018-0.839t-0.839-2.018zM2.286 22.286q0 0.232 0.17 0.402t0.402 0.17h14.857q0.232 0 0.402-0.17t0.17-0.402v-17.143q0-0.232-0.17-0.402t-0.402-0.17h-14.857q-0.232 0-0.402 0.17t-0.17 0.402v17.143zM9.143 25.143q0 0.464 0.339 0.804t0.804 0.339 0.804-0.339 0.339-0.804-0.339-0.804-0.804-0.339-0.804 0.339-0.339 0.804z" fill="#000000"></path>
</svg>
