<?xml version="1.0" encoding="utf-8"?>
<!-- Generated by IcoMoon.io -->
<!DOCTYPE svg PUBLIC "-//W3C//DTD SVG 1.1//EN" "http://www.w3.org/Graphics/SVG/1.1/DTD/svg11.dtd">
<svg version="1.1" xmlns="http://www.w3.org/2000/svg" xmlns:xlink="http://www.w3.org/1999/xlink" width="32" height="32" viewBox="0 0 32 32">
<g id="icomoon-ignore">
	<line stroke-width="1" x1="" y1="" x2="" y2="" stroke="#449FDB" opacity=""></line>
</g>
	<path d="M0 12v-7.429q0-0.929 0.679-1.607t1.607-0.679h7.429q0.946 0 2.089 0.473t1.821 1.152l12.768 12.75q0.661 0.696 0.661 1.625 0 0.946-0.661 1.607l-8.768 8.786q-0.696 0.661-1.625 0.661-0.946 0-1.607-0.661l-12.768-12.786q-0.679-0.661-1.152-1.804t-0.473-2.089zM3.429 8q0 0.946 0.67 1.616t1.616 0.67 1.616-0.67 0.67-1.616-0.67-1.616-1.616-0.67-1.616 0.67-0.67 1.616z" fill="#000000"></path>
</svg>
