<?xml version="1.0" encoding="utf-8"?>
<!-- Generated by IcoMoon.io -->
<!DOCTYPE svg PUBLIC "-//W3C//DTD SVG 1.1//EN" "http://www.w3.org/Graphics/SVG/1.1/DTD/svg11.dtd">
<svg version="1.1" xmlns="http://www.w3.org/2000/svg" xmlns:xlink="http://www.w3.org/1999/xlink" width="32" height="32" viewBox="0 0 32 32">
<g id="icomoon-ignore">
	<line stroke-width="1" x1="" y1="" x2="" y2="" stroke="#449FDB" opacity=""></line>
</g>
	<path d="M0 28v1.143q0 0.25 0.161 0.411t0.411 0.161h26.286q0.25 0 0.411-0.161t0.161-0.411v-1.143q0-0.25-0.161-0.411t-0.411-0.161h-26.286q-0.25 0-0.411 0.161t-0.161 0.411zM0 2.339q0.232-0.018 0.714-0.018 1.071 0 2 0.071 2.357 0.125 2.964 0.125 1.536 0 3-0.054 2.071-0.071 2.607-0.089 1 0 1.536-0.036l-0.018 0.25 0.036 1.143v0.161q-1.071 0.161-2.214 0.161-1.071 0-1.411 0.446-0.232 0.25-0.232 2.357 0 0.232 0.009 0.58t0.009 0.455l0.018 4.089 0.25 5q0.107 2.214 0.911 3.607 0.625 1.054 1.714 1.643 1.571 0.839 3.161 0.839 1.857 0 3.411-0.5 1-0.321 1.768-0.911 0.857-0.643 1.161-1.143 0.643-1 0.946-2.036 0.375-1.304 0.375-4.089 0-1.411-0.063-2.286t-0.196-2.188-0.241-2.848l-0.071-1.054q-0.089-1.196-0.429-1.571-0.607-0.625-1.375-0.607l-1.786 0.036-0.25-0.054 0.036-1.536h1.5l3.661 0.179q1.357 0.054 3.5-0.179l0.321 0.036q0.107 0.679 0.107 0.911 0 0.125-0.071 0.554-0.804 0.214-1.5 0.232-1.304 0.196-1.411 0.304-0.268 0.268-0.268 0.732 0 0.125 0.027 0.482t0.027 0.554q0.143 0.339 0.393 7.071 0.107 3.482-0.268 5.429-0.268 1.357-0.732 2.179-0.679 1.161-2 2.196-1.339 1.018-3.25 1.589-1.946 0.589-4.554 0.589-2.982 0-5.071-0.821-2.125-0.839-3.196-2.179-1.089-1.357-1.482-3.482-0.286-1.429-0.286-4.232v-5.946q0-3.357-0.304-3.804-0.446-0.643-2.625-0.696-0.661-0.036-0.804-0.071z" fill="#000000"></path>
</svg>
